<svg id="Layer_1" enable-background="new 0 0 512.022 512.022" height="512" viewBox="0 0 512.022 512.022" width="512" xmlns="http://www.w3.org/2000/svg"><path d="m349.403 202.247c10.858 12.829 1.257 32.966-15.378 32.775-5.743 0-11.443-2.461-15.399-7.225l-44-53c-7.056-8.499-5.886-21.107 2.613-28.163 8.497-7.055 21.107-5.886 28.163 2.613zm162.612-68.432c0 35.182-13.733 68.522-38.669 93.878-12.227 12.433-86.807 64.749-87.183 64.977-30.946 18.711-69.763 17.87-104.614 5.127 0 0-134.353 95.361-134.353 95.361-22.666 16.124-54.657 12.14-72.645-9.453-17.809-20.616-16.248-53.924 3.418-72.78-.001 0 117.645-116.902 117.645-116.902-6.156-86.728 34.457-101.003 87.796-155.296 82.976-83.335 229.389-22.604 228.605 95.088zm-262.611 137.746-33.966-40.848-109.277 108.586c-5.161 5.128-5.541 13.21-.883 18.799 4.627 5.553 12.869 6.625 18.764 2.442zm222.611-137.746c.52-82.588-102.301-125.071-160.51-66.616-6.435 6.349-54.457 52.033-59.233 56.576-13.383 13.991-19.225 38.199-16.66 68.637l54.849 65.96c28.035 11.324 55.563 11.521 74.476.385 29.159-20.398 72.861-51.962 79.891-59.11 17.531-17.829 27.187-41.208 27.187-65.832zm40 358.207c0 11.046-8.954 20-20 20h-67.919c-36.437 0-66.081-29.644-66.081-66.081v-23.76c0-15.527-12.632-28.159-28.159-28.159-14.8 0-26.841 12.041-26.841 26.841v24.159c0 36.944-30.056 67-67 67h-172.4c-35.069 0-63.6-28.531-63.6-63.6 0-18.913 8.327-36.709 22.847-48.828 21.049-16.272 45.307 13.116 25.631 30.71-16.796 13.875-6.783 41.806 15.123 41.717h172.4c14.888 0 27-12.112 27-27v-24.159c0-36.856 29.985-66.841 66.841-66.841 37.583 0 68.159 30.576 68.159 68.159v23.76c0 14.381 11.7 26.081 26.081 26.081h67.919c11.045.001 19.999 8.956 19.999 20.001zm-512-352.937c-.775-40.609 42.136-70.735 80-56.56v-45.557c-.327-28.438 32.096-46.61 56.181-31.496 5.093 3.222 10.885.612 13.113-1.603 22.058-14.715 44.324 16.129 23.413 32.432-15.395 11.137-35.611 14.288-52.706 5.835v96.949c-3.015 79.49-116.999 79.466-120.001 0zm40 0c0 11.028 8.972 20 20 20 26.496-1.006 26.489-38.998 0-40-11.028 0-20 8.973-20 20z"/></svg>